<svg width="60" height="61" viewBox="0 0 60 61" fill="none" xmlns="http://www.w3.org/2000/svg">
<rect opacity="0.06" y="0.164551" width="60" height="60" rx="30" fill="#0C1129"/>
<path d="M39.25 20.1646H21.75C20.7554 20.1646 19.8016 20.5596 19.0983 21.2629C18.3951 21.9662 18 22.92 18 23.9146V36.4146C18 37.4091 18.3951 38.3629 19.0983 39.0662C19.8016 39.7695 20.7554 40.1646 21.75 40.1646H39.25C40.2446 40.1646 41.1984 39.7695 41.9017 39.0662C42.6049 38.3629 43 37.4091 43 36.4146V23.9146C43 22.92 42.6049 21.9662 41.9017 21.2629C41.1984 20.5596 40.2446 20.1646 39.25 20.1646ZM38.7375 22.6646L31.3875 30.0146C31.2713 30.1317 31.133 30.2247 30.9807 30.2882C30.8284 30.3516 30.665 30.3843 30.5 30.3843C30.335 30.3843 30.1716 30.3516 30.0193 30.2882C29.867 30.2247 29.7287 30.1317 29.6125 30.0146L22.2625 22.6646H38.7375ZM40.5 36.4146C40.5 36.7461 40.3683 37.064 40.1339 37.2984C39.8995 37.5329 39.5815 37.6646 39.25 37.6646H21.75C21.4185 37.6646 21.1005 37.5329 20.8661 37.2984C20.6317 37.064 20.5 36.7461 20.5 36.4146V24.4271L27.85 31.7771C28.5531 32.4793 29.5062 32.8738 30.5 32.8738C31.4938 32.8738 32.4469 32.4793 33.15 31.7771L40.5 24.4271V36.4146Z" fill="black"/>
</svg>
