<svg width="60" height="61" viewBox="0 0 60 61" fill="none" xmlns="http://www.w3.org/2000/svg">
<rect opacity="0.06" y="0.164551" width="60" height="60" rx="30" fill="#0C1129"/>
<path d="M25.6217 29.0641C25.4044 29.0641 25.192 29.1286 25.0114 29.2495C24.8308 29.3704 24.69 29.5421 24.6068 29.7431C24.5237 29.9441 24.5019 30.1653 24.5443 30.3787C24.5867 30.592 24.6913 30.788 24.8449 30.9418C24.9986 31.0957 25.1943 31.2004 25.4074 31.2429C25.6205 31.2853 25.8413 31.2635 26.042 31.1803C26.2427 31.097 26.4143 30.956 26.535 30.7752C26.6557 30.5943 26.7201 30.3816 26.7201 30.1641C26.7201 29.8723 26.6044 29.5926 26.3984 29.3863C26.1924 29.18 25.913 29.0641 25.6217 29.0641ZM30.0155 29.0641C29.7982 29.0641 29.5859 29.1286 29.4052 29.2495C29.2246 29.3704 29.0838 29.5421 29.0006 29.7431C28.9175 29.9441 28.8958 30.1653 28.9381 30.3787C28.9805 30.592 29.0851 30.788 29.2388 30.9418C29.3924 31.0957 29.5881 31.2004 29.8012 31.2429C30.0143 31.2853 30.2351 31.2635 30.4358 31.1803C30.6366 31.097 30.8081 30.956 30.9288 30.7752C31.0495 30.5943 31.1139 30.3816 31.1139 30.1641C31.1139 29.8723 30.9982 29.5926 30.7922 29.3863C30.5862 29.18 30.3068 29.0641 30.0155 29.0641ZM34.4093 29.0641C34.192 29.0641 33.9797 29.1286 33.799 29.2495C33.6184 29.3704 33.4776 29.5421 33.3945 29.7431C33.3113 29.9441 33.2896 30.1653 33.3319 30.3787C33.3743 30.592 33.4789 30.788 33.6326 30.9418C33.7862 31.0957 33.9819 31.2004 34.195 31.2429C34.4081 31.2853 34.6289 31.2635 34.8296 31.1803C35.0304 31.097 35.2019 30.956 35.3226 30.7752C35.4433 30.5943 35.5077 30.3816 35.5077 30.1641C35.5077 29.8723 35.392 29.5926 35.186 29.3863C34.98 29.18 34.7006 29.0641 34.4093 29.0641ZM30.0155 19.1646C28.573 19.1646 27.1446 19.4491 25.8119 20.0018C24.4792 20.5546 23.2683 21.3648 22.2483 22.3862C20.1883 24.449 19.031 27.2468 19.031 30.1641C19.0214 32.704 19.8996 35.1672 21.5135 37.1268L19.3166 39.3267C19.1641 39.4813 19.0609 39.6778 19.0198 39.8911C18.9788 40.1045 19.0018 40.3253 19.0859 40.5256C19.1771 40.7235 19.325 40.8898 19.5108 41.0034C19.6966 41.117 19.9119 41.1727 20.1294 41.1636H30.0155C32.9288 41.1636 35.7227 40.0047 37.7827 37.9419C39.8427 35.8791 41 33.0813 41 30.1641C41 27.2468 39.8427 24.449 37.7827 22.3862C35.7227 20.3234 32.9288 19.1646 30.0155 19.1646ZM30.0155 38.9637H22.7767L23.7982 37.9407C23.902 37.8388 23.9846 37.7174 24.0412 37.5833C24.0977 37.4492 24.1272 37.3053 24.1278 37.1598C24.1237 36.8696 24.0052 36.5929 23.7982 36.3898C22.3599 34.9511 21.4642 33.0575 21.2638 31.0317C21.0633 29.0059 21.5705 26.9731 22.6989 25.2798C23.8274 23.5864 25.5072 22.3372 27.4523 21.745C29.3973 21.1528 31.4873 21.2542 33.366 22.032C35.2447 22.8098 36.7961 24.2158 37.7557 26.0105C38.7152 27.8052 39.0237 29.8776 38.6286 31.8745C38.2334 33.8714 37.159 35.6694 35.5885 36.962C34.018 38.2547 32.0485 38.9621 30.0155 38.9637Z" fill="black"/>
</svg>
