<svg width="60" height="61" viewBox="0 0 60 61" fill="none" xmlns="http://www.w3.org/2000/svg">
<rect opacity="0.06" x="0.00012207" y="0.164551" width="60" height="60" rx="30" fill="#0C1129"/>
<path d="M41.1984 19.6832C40.8878 19.4238 40.513 19.2539 40.1138 19.1914C39.7145 19.1288 39.3059 19.1761 38.9313 19.3282L19.3808 27.2499C18.9627 27.4226 18.6068 27.7188 18.3603 28.0991C18.1138 28.4795 17.9885 28.9261 18.0008 29.3797C18.0132 29.8333 18.1627 30.2723 18.4295 30.6386C18.6964 31.0049 19.0679 31.2811 19.4948 31.4305L23.4494 32.8109L25.6536 40.1264C25.6836 40.2241 25.7271 40.3171 25.7828 40.4027C25.7912 40.4158 25.8032 40.4256 25.8122 40.4384C25.8765 40.5285 25.9543 40.6082 26.0428 40.6746C26.068 40.6939 26.0921 40.7119 26.119 40.729C26.2226 40.798 26.3372 40.8484 26.458 40.878L26.4709 40.8791L26.4782 40.8823C26.5508 40.8971 26.6247 40.9046 26.6987 40.9047C26.7059 40.9047 26.7122 40.9013 26.7193 40.9012C26.831 40.8992 26.9418 40.8799 27.0477 40.8439C27.0724 40.8355 27.0935 40.8214 27.1174 40.8112C27.1963 40.7784 27.2711 40.7363 27.3402 40.6858C27.3956 40.639 27.4509 40.5922 27.5063 40.5455L30.4542 37.2791L34.851 40.6973C35.238 40.9997 35.7145 41.1641 36.205 41.1646C36.7191 41.1639 37.2172 40.9859 37.616 40.6604C38.0149 40.3349 38.29 39.8817 38.3955 39.3768L41.9548 21.8408C42.0355 21.4461 42.0077 21.0369 41.8745 20.6568C41.7413 20.2768 41.5076 19.9402 41.1984 19.6832ZM27.1313 33.1594C26.9801 33.3106 26.8767 33.5033 26.8341 33.7133L26.4964 35.36L25.6411 32.5209L30.076 30.2031L27.1313 33.1594ZM36.188 38.9662L30.9922 34.9268C30.7748 34.7582 30.5021 34.678 30.2285 34.7022C29.9548 34.7264 29.7003 34.8531 29.5156 35.0572L28.5715 36.1031L28.9052 34.4756L36.6323 26.7206C36.8167 26.5358 36.9291 26.2908 36.949 26.0299C36.969 25.7691 36.8952 25.5097 36.741 25.2988C36.5869 25.0878 36.3625 24.9393 36.1086 24.88C35.8548 24.8207 35.5881 24.8547 35.357 24.9757L24.2673 30.7704L20.2043 29.2782L39.8177 21.4035L36.188 38.9662Z" fill="black"/>
</svg>
